<svg width="26" height="26" viewBox="0 0 26 26" fill="none" xmlns="http://www.w3.org/2000/svg">
<path d="M15.1885 10.1136C15.1889 10.3939 15.4967 10.594 15.7843 10.5935L22.9359 10.5912C23.5096 10.5902 23.9773 11.0446 23.9782 11.6037L23.9981 23.7743C23.999 24.3333 23.5328 24.7892 22.9591 24.7902L2.14468 24.8242C1.57099 24.8251 1.10324 24.3707 1.10233 23.8117L1.08244 11.6411C1.08153 11.082 1.54779 10.6261 2.12149 10.6252L9.19797 10.5957C9.4856 10.5952 9.79468 10.3956 9.79422 10.1153C9.79436 9.78255 9.48601 9.6081 9.19838 9.60857L2.11983 9.61091C0.971855 9.61284 0.0398663 10.5241 0.0416938 11.6428L0.0388286 23.8119C0.0406562 24.9306 0.998364 25.8403 2.14634 25.8384L22.9607 25.8044C24.1086 25.8025 25.0406 24.8913 25.0388 23.7726L25.0189 11.602C25.0171 10.4833 24.0821 9.57504 22.9342 9.57691L15.7848 9.57928C15.4972 9.57979 15.188 9.83325 15.1885 10.1136Z" fill="#006CFF"/>
<path d="M11.9837 0.186363L5.00003 6.3086C4.7632 6.51738 4.78173 6.83807 5.04031 7.02813C5.29954 7.21767 5.56227 7.23658 5.93868 6.99535L11.9122 1.83763L11.8455 17.8447C11.846 18.1262 12.1307 18.3535 12.4822 18.3529C12.8336 18.3524 13.1176 18.1241 13.1171 17.8427L13.091 1.83763L18.9885 6.97398C19.226 7.18098 19.6284 7.19421 19.887 7.00383C20.0234 6.90316 20.0927 6.76579 20.0925 6.62801C20.0923 6.50518 20.0368 6.38195 19.9249 6.28417L12.9213 0.184783C12.8006 0.0796162 12.6304 0.0202171 12.4522 0.0205082C12.274 0.0207994 12.104 0.0807542 11.9837 0.186363Z" fill="#006CFF"/>
</svg>
