<?xml version="1.0" encoding="utf-8"?>
<!-- Generator: Adobe Illustrator 24.2.3, SVG Export Plug-In . SVG Version: 6.00 Build 0)  -->
<svg version="1.1" id="Camada_1" xmlns="http://www.w3.org/2000/svg" xmlns:xlink="http://www.w3.org/1999/xlink" x="0px" y="0px"
	 viewBox="0 0 663 637" style="enable-background:new 0 0 663 637;" xml:space="preserve">
<style type="text/css">
	.st0{fill-rule:evenodd;clip-rule:evenodd;fill:#83CBD4;}
	.st1{opacity:0.7;fill-rule:evenodd;clip-rule:evenodd;fill:#83CBD4;}
	.st2{fill:#E09484;}
	.st3{font-family:'Lato-Black';}
	.st4{font-size:137.7332px;}
</style>
<g>
	<g>
		<g>
			<path class="st0" d="M447.64,104.97c-9.87-3.17-19.77-6.28-29.61-9.54c-20.92-6.91-42.05-13.04-64.14-15.73
				c-14.38-1.76-28.74-1.87-43.08-0.97c-16.15,1.01-32.29,2.21-47.99,5.52c-9.93,2.09-19.44,5.21-27.29,11.1
				c-4.28,3.22-7.43,7.06-6.9,12.52c0.31,3.25,2.24,5.76,4.84,7.92c5.59,4.64,12.41,7.43,19.28,10.12
				c9.14,3.58,18.59,6.58,27.37,10.77c13.94,6.64,23.79,16.56,26.76,30.59c0.78,3.67,0.52,7.65-0.29,11.29
				c-1.63,7.39-9.06,9.5-16.09,4.9c-3.59-2.36-7.08-4.85-10.67-7.22c-10.63-7.05-22.37-11.72-35.24-14.3
				c-14.64-2.94-29.27-5.95-43.76-9.47c-26.38-6.39-51.03-16.23-72.06-32.32c-8.5-6.51-17.73-9.9-28.56-8.42
				c-5.84,0.8-11.72,2.19-17.07,4.28c-8.5,3.32-16.54,7.5-24.81,11.26c-2.47,1.11-4.97,2.24-7.59,3.05
				c-3.91,1.24-6.03-0.07-5.46-3.73c0.61-3.94,2.09-7.76,3.13-11.65c1.7-6.42,6.66-10.99,11.19-15.79
				c15.31-16.24,32.76-30.32,53.59-41c23.48-12.05,49.16-18.28,76.45-20.3c17.3-1.28,34.67-1.1,52.05-0.45
				c19.76,0.73,39.48,1.02,59.19-0.02c14.69-0.78,29.28,1.27,43.72,4.17c23.77,4.77,46.48,12.41,68.51,21.83
				c15.56,6.65,30.5,14.29,44.66,23.12c2.39,1.48,4.61,3.3,6.49,5.27c3.33,3.5,2.71,7.14-1.08,10.01
				C458.69,105.2,453.46,105.51,447.64,104.97z"/>
			<path class="st1" d="M315.21,85.99c4.69-0.19,9.12-0.51,13.56-0.49c6.6,0.02,13.22,0.24,19.83,0.48
				c1.06,0.04,2.39,0.41,3.13,1.04c9.06,7.76,18.07,15.57,26.99,23.46c1.56,1.39,2.76,3.12,3.91,4.8c2.73,4.02,1.28,7.25-3.77,8.54
				c-4.14,1.06-8.21,0.37-12.19-0.97c-10.59-3.59-18.92-10.06-27.08-16.78c-7.86-6.46-15.86-12.8-23.79-19.19
				C315.62,86.75,315.55,86.53,315.21,85.99z"/>
			<path class="st1" d="M356.31,86.5c2.4,0.3,4.29,0.53,6.17,0.81c15.22,2.35,30.18,5.78,44.9,10.1c0.65,0.19,1.38,0.43,1.87,0.85
				c6.11,5.22,12.21,10.45,18.23,15.74c1.13,0.98,1.99,2.24,2.83,3.44c2.65,3.75,1.54,6.78-3.03,8.33
				c-4.13,1.41-8.35,0.85-12.45-0.35c-9.07-2.63-16.79-7.37-23.81-12.97c-10.99-8.73-21.69-17.73-34-25.05
				C356.89,87.34,356.82,87.17,356.31,86.5z"/>
			<path class="st1" d="M282.42,89.49c4.8-0.61,8.73-1.16,12.7-1.6c4.52-0.51,9.05-0.96,13.6-1.31c0.96-0.08,2.32,0.07,2.94,0.61
				c8.41,7.41,16.74,14.92,25.05,22.43c0.73,0.65,1.21,1.55,1.71,2.39c1.88,3.11,1.13,5.28-2.4,6.85c-3.52,1.55-7.33,1.29-10.79,0
				c-4.64-1.74-9.55-3.49-13.38-6.29C301.96,105.33,292.61,97.54,282.42,89.49z"/>
		</g>
	</g>
	<g>
		<g>
			<path class="st0" d="M330.74,603.05c-23.19,0.05-45.91-2.35-68.37-6.62c-18.71-3.55-37-8.16-54.64-14.43
				c-4.13-1.49-8.31-2.88-12.29-4.62c-2.7-1.17-5.33-2.63-7.55-4.34c-3.09-2.4-3.06-5.76-0.58-8.4c3.49-3.69,8.02-5.84,13.58-5.46
				c7.81,0.54,15.65,1.25,23.34,2.44c18.49,2.91,37,5.53,55.84,6.43c14.27,0.67,28.52,0.2,42.57-2.19
				c11.68-1.99,23.35-4.22,34.79-7.03c11.28-2.77,22.44-6.04,33.3-9.82c9.36-3.26,17.91-7.95,24.23-14.88
				c3.16-3.48,5.02-7.31,3.67-11.81c-0.88-2.91-3.12-4.9-5.94-6.49c-6.23-3.55-13.42-5.12-20.62-6.62
				c-9.58-1.99-19.4-3.37-28.74-5.94c-14.15-3.89-24.94-11.34-30.76-23.17c-1.88-3.82-2.5-7.82-2.13-11.93
				c0.63-7.31,7.42-10.55,15.22-7.3c2.28,0.95,4.53,1.98,6.74,3.05c14.85,7.16,30.98,10.12,48.1,10.46
				c20.06,0.42,40.11,1.27,59.85,4.42c20.29,3.23,39.54,8.74,57.08,17.92c11.22,5.85,22.67,4.92,34.2,0.49
				c9.12-3.5,16.97-8.62,24.72-13.87c3.73-2.52,7.5-5.01,11.29-7.47c0.98-0.64,2.06-1.18,3.15-1.66c3.68-1.58,5.96-0.68,6.05,2.8
				c0.08,3.06-0.62,6.15-0.88,9.24c-0.67,8.18-6.07,14.71-10.99,21.4c-13.19,17.9-28.99,33.94-48.91,46.95
				c-17.91,11.7-37.87,20.04-59.55,25.65c-17.59,4.54-35.56,7.39-53.69,9.67c-21.79,2.77-43.57,5.45-65.04,9.88
				C348.98,601.65,339.76,602.02,330.74,603.05z"/>
			<path class="st1" d="M336.16,555.98c-0.9,0.31-1.5,0.65-2.15,0.75c-10.08,1.56-20.16,3.14-30.26,4.61
				c-1.1,0.16-2.58-0.04-3.48-0.56c-9.9-5.73-19.77-11.5-29.53-17.39c-1.98-1.18-3.65-2.76-5.23-4.33
				c-3.49-3.47-2.42-6.89,2.65-8.81c3.88-1.46,7.91-1.43,11.96-0.77c10.55,1.7,19.51,6.18,28.26,11.06
				c8.77,4.88,17.62,9.67,26.43,14.51C335.21,555.27,335.56,555.57,336.16,555.98z"/>
			<path class="st1" d="M295.59,562.46c-10.31-0.33-20.62-0.51-30.91-1.03c-6.95-0.35-13.85-1.2-20.77-1.87
				c-0.76-0.07-1.61-0.23-2.22-0.58c-6.65-3.83-13.29-7.68-19.85-11.61c-1.41-0.85-2.6-1.97-3.75-3.07
				c-3.4-3.25-2.68-6.31,1.86-8.54c3.76-1.85,7.83-1.82,11.86-1.39c10.05,1.05,18.9,4.72,27.16,9.24
				c11.7,6.4,23.36,12.83,36.15,17.67c0.23,0.08,0.38,0.27,0.57,0.41C295.66,561.95,295.62,562.22,295.59,562.46z"/>
			<path class="st1" d="M367.91,548.16c-2.6,0.72-4.9,1.41-7.22,2.01c-5.94,1.49-11.86,3-17.83,4.4c-0.92,0.22-2.23,0.26-2.98-0.13
				c-9.78-5.22-19.72-10.26-28.17-17.01c-0.5-0.41-0.96-0.86-1.41-1.31c-3.62-3.66-2.26-7.31,3.29-8.75
				c4.6-1.22,9.11-0.62,13.56,0.47c9.63,2.37,17.83,6.91,25.86,11.73C357.79,542.41,362.67,545.14,367.91,548.16z"/>
		</g>
	</g>
	<text transform="matrix(1 0 0 1 67.9629 290.7352)" class="st2 st3 st4">Doar</text>
	<text transform="matrix(1 0 0 1 91.4473 421.0385)" class="st2 st3 st4">faz Bem</text>
</g>
</svg>
