<?xml version="1.0" encoding="utf-8"?>
<!-- Generator: Adobe Illustrator 24.2.3, SVG Export Plug-In . SVG Version: 6.00 Build 0)  -->
<svg version="1.1" id="Camada_1" xmlns="http://www.w3.org/2000/svg" xmlns:xlink="http://www.w3.org/1999/xlink" x="0px" y="0px"
	 viewBox="0 0 1754 1534" style="enable-background:new 0 0 1754 1534;" xml:space="preserve">
<style type="text/css">
	.st0{fill:#FFFFFF;}
	.st1{fill-rule:evenodd;clip-rule:evenodd;fill:#84CCD5;}
	.st2{opacity:0.7;fill-rule:evenodd;clip-rule:evenodd;fill:#84CCD5;}
	.st3{fill:#E19584;}
</style>
<rect class="st0" width="1754" height="1534"/>
<g>
	<g>
		<g>
			<path class="st1" d="M1217.27,214.29c-25.64-8.24-51.39-16.33-76.94-24.79c-54.36-17.97-109.27-33.88-166.68-40.89
				c-37.37-4.56-74.68-4.85-111.96-2.52c-41.97,2.62-83.9,5.75-124.72,14.35c-25.8,5.42-50.52,13.54-70.91,28.85
				c-11.12,8.38-19.3,18.34-17.93,32.53c0.82,8.45,5.81,14.97,12.58,20.59c14.52,12.06,32.26,19.31,50.1,26.3
				c23.74,9.3,48.31,17.1,71.13,27.99c36.21,17.25,61.82,43.02,69.55,79.48c2.02,9.53,1.35,19.88-0.74,29.34
				c-4.24,19.2-23.53,24.68-41.81,12.74c-9.34-6.13-18.4-12.61-27.72-18.75c-27.61-18.32-58.13-30.45-91.58-37.17
				c-38.03-7.63-76.06-15.47-113.73-24.6c-68.55-16.6-132.62-42.18-187.24-83.98c-22.1-16.91-46.06-25.72-74.21-21.89
				c-15.17,2.07-30.46,5.68-44.35,11.13c-22.08,8.64-42.97,19.48-64.46,29.27c-6.42,2.88-12.93,5.82-19.72,7.93
				c-10.15,3.22-15.66-0.18-14.19-9.7c1.59-10.23,5.44-20.17,8.12-30.28c4.43-16.69,17.3-28.55,29.08-41.04
				c39.79-42.21,85.14-78.8,139.27-106.55c61.02-31.32,127.76-47.5,198.67-52.75c44.95-3.33,90.08-2.86,135.27-1.17
				c51.36,1.9,102.59,2.64,153.81-0.06c38.19-2.03,76.09,3.31,113.61,10.85c61.76,12.39,120.8,32.24,178.03,56.73
				c40.44,17.28,79.25,37.12,116.06,60.07c6.2,3.86,11.99,8.57,16.87,13.71c8.66,9.1,7.04,18.56-2.79,26.01
				C1245.99,214.89,1232.4,215.7,1217.27,214.29z"/>
			<path class="st2" d="M873.15,164.98c12.19-0.48,23.7-1.32,35.25-1.28c17.16,0.06,34.35,0.62,51.54,1.25
				c2.76,0.11,6.2,1.06,8.12,2.72c23.54,20.16,46.96,40.47,70.14,60.96c4.04,3.62,7.16,8.12,10.15,12.48
				c7.11,10.44,3.33,18.85-9.79,22.19c-10.75,2.75-21.34,0.97-31.68-2.52c-27.51-9.32-49.15-26.14-70.38-43.6
				c-20.42-16.8-41.22-33.26-61.82-49.86C874.22,166.95,874.02,166.37,873.15,164.98z"/>
			<path class="st2" d="M979.94,166.31c6.23,0.79,11.16,1.37,16.03,2.11c39.55,6.11,78.42,15.01,116.68,26.25
				c1.7,0.49,3.59,1.13,4.85,2.21c15.88,13.55,31.73,27.15,47.38,40.91c2.93,2.55,5.16,5.82,7.36,8.95c6.88,9.74,4,17.61-7.87,21.65
				c-10.74,3.66-21.69,2.2-32.35-0.9c-23.56-6.84-43.63-19.16-61.87-33.7c-28.55-22.68-56.36-46.07-88.36-65.09
				C981.44,168.49,981.26,168.05,979.94,166.31z"/>
			<path class="st2" d="M787.93,174.06c12.47-1.59,22.69-3.02,32.99-4.17c11.75-1.32,23.53-2.49,35.35-3.41
				c2.5-0.2,6.03,0.18,7.63,1.59c21.86,19.26,43.51,38.77,65.1,58.3c1.9,1.7,3.14,4.03,4.46,6.2c4.87,8.09,2.94,13.73-6.23,17.79
				c-9.14,4.03-19.05,3.35-28.04,0c-12.06-4.52-24.83-9.08-34.76-16.34C838.71,215.24,814.41,194.98,787.93,174.06z"/>
		</g>
	</g>
	<g>
		<g>
			<path class="st1" d="M913.51,1508.62c-60.27,0.14-119.3-6.11-177.66-17.19c-48.63-9.23-96.15-21.2-141.99-37.51
				c-10.74-3.86-21.59-7.5-31.93-12.01c-7.02-3.05-13.85-6.83-19.62-11.29c-8.03-6.23-7.95-14.98-1.52-21.82
				c9.06-9.6,20.85-15.18,35.29-14.19c20.31,1.39,40.66,3.24,60.65,6.35c48.04,7.56,96.15,14.37,145.1,16.7
				c37.07,1.74,74.11,0.51,110.62-5.68c30.36-5.16,60.68-10.96,90.4-18.28c29.31-7.21,58.31-15.7,86.53-25.52
				c24.32-8.48,46.55-20.65,62.96-38.66c8.22-9.04,13.06-19,9.53-30.68c-2.27-7.57-8.1-12.74-15.44-16.87
				c-16.2-9.22-34.87-13.31-53.58-17.19c-24.89-5.16-50.41-8.75-74.67-15.42c-36.77-10.1-64.81-29.48-79.93-60.2
				c-4.89-9.94-6.5-20.32-5.54-30.99c1.65-19,19.29-27.42,39.56-18.97c5.93,2.47,11.76,5.13,17.52,7.93
				c38.59,18.6,80.51,26.3,125,27.18c52.13,1.09,104.22,3.31,155.52,11.49c52.73,8.4,102.74,22.72,148.32,46.57
				c29.16,15.21,58.92,12.79,88.87,1.28c23.69-9.1,44.11-22.39,64.25-36.03c9.69-6.55,19.49-13.01,29.33-19.4
				c2.54-1.66,5.34-3.07,8.19-4.3c9.57-4.12,15.48-1.76,15.72,7.28c0.2,7.95-1.61,15.98-2.29,24.02
				c-1.75,21.25-15.76,38.22-28.57,55.61c-34.27,46.51-75.33,88.2-127.1,122.01c-46.55,30.41-98.4,52.08-154.75,66.65
				c-45.72,11.79-92.4,19.2-139.51,25.13c-56.62,7.2-113.22,14.17-169.01,25.68C960.89,1504.99,936.95,1505.93,913.51,1508.62z"/>
			<path class="st2" d="M927.58,1386.31c-2.33,0.82-3.9,1.68-5.6,1.94c-26.2,4.06-52.39,8.16-78.65,11.97
				c-2.86,0.42-6.7-0.11-9.03-1.45c-25.73-14.88-51.36-29.87-76.75-45.19c-5.13-3.07-9.5-7.16-13.58-11.26
				c-9.06-9.01-6.28-17.9,6.88-22.9c10.08-3.81,20.55-3.72,31.09-2c27.41,4.41,50.7,16.05,73.45,28.74
				c22.78,12.68,45.78,25.13,68.68,37.72C925.11,1384.46,926.01,1385.23,927.58,1386.31z"/>
			<path class="st2" d="M822.15,1403.15c-26.78-0.86-53.58-1.34-80.32-2.69c-18.06-0.92-35.98-3.13-53.98-4.85
				c-1.98-0.18-4.17-0.59-5.76-1.49c-17.28-9.96-34.53-19.95-51.59-30.18c-3.66-2.21-6.75-5.13-9.75-7.98
				c-8.83-8.44-6.95-16.39,4.84-22.19c9.77-4.81,20.35-4.74,30.83-3.61c26.11,2.73,49.11,12.27,70.59,24.02
				c30.41,16.64,60.69,33.35,93.93,45.92c0.58,0.22,0.99,0.71,1.49,1.06C822.33,1401.81,822.24,1402.52,822.15,1403.15z"/>
			<path class="st2" d="M1010.1,1365.97c-6.75,1.87-12.74,3.66-18.77,5.22c-15.42,3.88-30.83,7.78-46.33,11.45
				c-2.39,0.57-5.8,0.68-7.73-0.33c-25.43-13.56-51.23-26.67-73.19-44.21c-1.31-1.06-2.5-2.23-3.66-3.41
				c-9.4-9.5-5.86-19,8.54-22.75c11.96-3.18,23.68-1.62,35.24,1.23c25.04,6.15,46.32,17.96,67.2,30.48
				C983.79,1351.04,996.48,1358.12,1010.1,1365.97z"/>
		</g>
	</g>
	<g>
		<path class="st3" d="M488.69,566.57c0,18.85-3.25,36.24-9.75,52.17c-6.5,15.93-15.66,29.71-27.47,41.34
			c-11.81,11.63-26.04,20.7-42.68,27.2c-16.64,6.5-35.11,9.75-55.39,9.75H252.11V436.29H353.4c20.28,0,38.74,3.28,55.39,9.84
			c16.64,6.56,30.87,15.63,42.68,27.2c11.81,11.57,20.97,25.32,27.47,41.25C485.44,530.51,488.69,547.84,488.69,566.57z
			 M426.77,566.57c0-12.89-1.67-24.52-5.01-34.9c-3.34-10.38-8.14-19.18-14.41-26.4c-6.26-7.22-13.93-12.76-23-16.64
			c-9.07-3.88-19.39-5.82-30.96-5.82h-40.44V650.5h40.44c11.57,0,21.89-1.94,30.96-5.82c9.07-3.88,16.73-9.42,23-16.64
			c6.26-7.22,11.06-16.02,14.41-26.4C425.1,591.26,426.77,579.57,426.77,566.57z"/>
		<path class="st3" d="M600.36,508.59c14.08,0,26.9,2.21,38.48,6.62c11.57,4.41,21.5,10.74,29.8,18.97
			c8.29,8.23,14.73,18.23,19.33,29.98c4.59,11.75,6.89,24.96,6.89,39.64c0,14.79-2.3,28.13-6.89,40
			c-4.59,11.87-11.04,21.95-19.33,30.24c-8.29,8.29-18.23,14.67-29.8,19.15c-11.57,4.47-24.4,6.71-38.48,6.71
			c-14.2,0-27.11-2.24-38.74-6.71c-11.63-4.47-21.65-10.86-30.07-19.15c-8.41-8.29-14.92-18.37-19.51-30.24
			c-4.59-11.87-6.89-25.2-6.89-40c0-14.67,2.3-27.89,6.89-39.64c4.59-11.75,11.09-21.74,19.51-29.98
			c8.41-8.23,18.43-14.56,30.07-18.97C573.25,510.79,586.16,508.59,600.36,508.59z M600.36,658.73c12.76,0,22.16-4.5,28.19-13.51
			c6.02-9.01,9.04-22.7,9.04-41.07c0-18.37-3.01-32.03-9.04-40.98c-6.03-8.95-15.42-13.42-28.19-13.42
			c-13.13,0-22.73,4.47-28.81,13.42c-6.08,8.95-9.13,22.61-9.13,40.98c0,18.37,3.04,32.06,9.13,41.07
			C577.63,654.23,587.23,658.73,600.36,658.73z"/>
		<path class="st3" d="M853.4,697.03c-5.25,0-9.22-0.72-11.9-2.15c-2.68-1.43-4.92-4.41-6.71-8.95l-3.94-10.2
			c-4.65,3.94-9.13,7.4-13.42,10.38c-4.3,2.98-8.74,5.52-13.33,7.61c-4.59,2.09-9.48,3.64-14.67,4.65
			c-5.19,1.01-10.95,1.52-17.27,1.52c-8.47,0-16.17-1.11-23.09-3.32c-6.92-2.22-12.8-5.48-17.63-9.78
			c-4.83-4.31-8.56-9.67-11.18-16.07c-2.63-6.4-3.94-13.79-3.94-22.17c0-6.58,1.67-13.35,5.01-20.29
			c3.34-6.94,9.13-13.25,17.36-18.94c8.23-5.68,19.33-10.44,33.29-14.27s31.56-5.75,52.79-5.75v-7.95c0-10.96-2.24-18.88-6.71-23.75
			c-4.47-4.88-10.83-7.32-19.06-7.32c-6.56,0-11.93,0.72-16.11,2.15c-4.18,1.43-7.91,3.04-11.18,4.83c-3.28,1.79-6.47,3.4-9.57,4.83
			c-3.1,1.43-6.8,2.15-11.1,2.15c-3.82,0-7.07-0.92-9.75-2.77c-2.68-1.85-4.8-4.14-6.35-6.89l-10.02-17.36
			c11.21-9.9,23.65-17.27,37.31-22.1c13.66-4.83,28.3-7.25,43.93-7.25c11.21,0,21.32,1.82,30.33,5.46
			c9.01,3.64,16.64,8.71,22.91,15.21c6.26,6.5,11.07,14.23,14.41,23.18c3.34,8.95,5.01,18.73,5.01,29.35v115.97H853.4z
			 M789.69,663.21c7.16,0,13.42-1.25,18.79-3.76c5.37-2.51,10.8-6.56,16.28-12.17v-25.41c-11.09,0-20.22,0.72-27.38,2.17
			c-7.16,1.44-12.83,3.25-17,5.42c-4.18,2.17-7.07,4.63-8.68,7.4c-1.61,2.77-2.42,5.77-2.42,9.02c0,6.38,1.73,10.86,5.19,13.45
			C777.94,661.91,783.01,663.21,789.69,663.21z"/>
		<path class="st3" d="M918.18,697.03V511.45h32.93c2.74,0,5.04,0.24,6.89,0.72c1.85,0.48,3.4,1.22,4.65,2.24
			c1.25,1.02,2.21,2.36,2.86,4.03c0.65,1.67,1.22,3.7,1.7,6.09l3.04,17.36c6.8-10.5,14.43-18.79,22.91-24.87
			c8.47-6.08,17.72-9.13,27.74-9.13c8.47,0,15.27,2.03,20.4,6.08l-7.16,40.8c-0.48,2.51-1.43,4.27-2.86,5.28
			c-1.43,1.02-3.34,1.52-5.73,1.52c-2.03,0-4.42-0.27-7.16-0.81c-2.75-0.54-6.2-0.81-10.38-0.81c-14.56,0-26.01,7.76-34.36,23.26
			v113.82H918.18z"/>
	</g>
	<g>
		<path class="st3" d="M321.37,1035.64V888.18l-12.17-2.5c-4.18-0.95-7.55-2.45-10.11-4.47c-2.57-2.03-3.85-5.01-3.85-8.95v-21.83
			h26.13v-10.56c0-10.62,1.7-20.22,5.1-28.81s8.29-15.93,14.67-22.01c6.38-6.09,14.17-10.8,23.35-14.14
			c9.19-3.34,19.62-5.01,31.32-5.01c4.53,0,8.74,0.27,12.62,0.81c3.88,0.54,7.9,1.4,12.08,2.59l-1.07,27.02
			c-0.12,1.91-0.63,3.49-1.52,4.74c-0.89,1.25-2,2.27-3.31,3.04c-1.31,0.78-2.77,1.34-4.39,1.7c-1.61,0.36-3.19,0.54-4.74,0.54
			c-4.89,0-9.25,0.48-13.06,1.43c-3.82,0.96-7.01,2.66-9.57,5.1c-2.57,2.45-4.5,5.67-5.82,9.66c-1.31,4-1.97,9.04-1.97,15.12v8.77
			h43.67v37.94h-41.88v147.28H321.37z"/>
		<path class="st3" d="M570.84,1035.64c-5.25,0-9.22-0.72-11.9-2.15c-2.68-1.43-4.92-4.41-6.71-8.95l-3.94-10.2
			c-4.65,3.94-9.13,7.4-13.42,10.38c-4.3,2.98-8.74,5.52-13.33,7.61c-4.59,2.09-9.48,3.64-14.67,4.65
			c-5.19,1.01-10.95,1.52-17.27,1.52c-8.47,0-16.17-1.11-23.09-3.32c-6.92-2.21-12.8-5.47-17.63-9.78
			c-4.83-4.31-8.56-9.67-11.18-16.07c-2.63-6.4-3.94-13.79-3.94-22.17c0-6.58,1.67-13.35,5.01-20.29
			c3.34-6.94,9.13-13.25,17.36-18.94c8.23-5.69,19.33-10.44,33.29-14.27c13.96-3.83,31.56-5.75,52.79-5.75v-7.95
			c0-10.96-2.24-18.88-6.71-23.75s-10.83-7.32-19.06-7.32c-6.56,0-11.93,0.72-16.11,2.15c-4.18,1.43-7.91,3.04-11.19,4.83
			c-3.28,1.79-6.47,3.4-9.57,4.83c-3.1,1.43-6.8,2.15-11.1,2.15c-3.82,0-7.07-0.92-9.75-2.77c-2.68-1.85-4.8-4.14-6.35-6.89
			l-10.02-17.36c11.21-9.9,23.65-17.27,37.31-22.1c13.66-4.83,28.3-7.25,43.93-7.25c11.21,0,21.32,1.82,30.33,5.46
			c9.01,3.64,16.64,8.71,22.91,15.21c6.26,6.5,11.06,14.23,14.41,23.18c3.34,8.95,5.01,18.73,5.01,29.35v115.97H570.84z
			 M507.13,1001.82c7.16,0,13.42-1.25,18.79-3.76c5.37-2.5,10.8-6.56,16.28-12.17v-25.41c-11.09,0-20.22,0.72-27.38,2.17
			c-7.16,1.44-12.83,3.25-17,5.42c-4.18,2.17-7.07,4.63-8.68,7.4c-1.61,2.77-2.42,5.77-2.42,9.02c0,6.38,1.73,10.86,5.19,13.45
			C495.38,1000.52,500.45,1001.82,507.13,1001.82z"/>
		<path class="st3" d="M774.13,872.25c0,3.82-0.72,7.46-2.15,10.92c-1.43,3.46-3.1,6.44-5.01,8.95l-77.49,102.37h82.86v41.16H625.59
			v-22.55c0-2.27,0.63-5.1,1.88-8.5c1.25-3.4,3.01-6.65,5.28-9.75l78.21-103.62h-80.35v-41.16h143.52V872.25z"/>
		<path class="st3" d="M875.42,1035.64V774.9h95.92c18.01,0,33.35,1.67,45.99,5.01c12.65,3.34,22.97,8.05,30.96,14.14
			c7.99,6.08,13.81,13.48,17.45,22.19c3.64,8.71,5.46,18.43,5.46,29.17c0,5.85-0.84,11.48-2.51,16.91
			c-1.67,5.43-4.29,10.53-7.87,15.3c-3.58,4.77-8.17,9.1-13.78,12.97c-5.61,3.88-12.35,7.25-20.22,10.11
			c17.18,4.18,29.88,10.95,38.12,20.31c8.23,9.37,12.35,21.39,12.35,36.06c0,11.09-2.15,21.42-6.44,30.96
			c-4.29,9.55-10.59,17.87-18.88,24.96c-8.29,7.1-18.52,12.65-30.69,16.64c-12.17,4-26.07,5.99-41.7,5.99H875.42z M935.9,884.6h31.5
			c6.68,0,12.7-0.47,18.07-1.43c5.37-0.95,9.93-2.62,13.69-5.01c3.76-2.39,6.62-5.67,8.59-9.84c1.97-4.17,2.95-9.42,2.95-15.75
			c0-6.2-0.78-11.36-2.33-15.48c-1.55-4.12-3.94-7.43-7.16-9.93c-3.22-2.51-7.31-4.3-12.26-5.37c-4.95-1.07-10.83-1.61-17.63-1.61
			H935.9V884.6z M935.9,925.04v64.96h42.59c7.99,0,14.52-1.01,19.6-3.04c5.07-2.03,9.04-4.65,11.9-7.87
			c2.86-3.22,4.83-6.86,5.91-10.92c1.07-4.06,1.61-8.17,1.61-12.35c0-4.77-0.63-9.06-1.88-12.88c-1.25-3.82-3.4-7.04-6.44-9.66
			c-3.04-2.62-7.07-4.65-12.08-6.08c-5.01-1.43-11.34-2.15-18.97-2.15H935.9z"/>
		<path class="st3" d="M1189.66,847.2c12.29,0,23.53,1.91,33.73,5.73c10.2,3.82,18.97,9.37,26.31,16.64
			c7.34,7.28,13.06,16.2,17.18,26.75c4.12,10.56,6.17,22.52,6.17,35.88c0,4.18-0.18,7.58-0.54,10.2c-0.36,2.63-1.02,4.71-1.97,6.26
			c-0.96,1.55-2.24,2.62-3.85,3.22c-1.61,0.6-3.67,0.9-6.17,0.9h-107.02c1.79,15.51,6.5,26.75,14.14,33.73
			c7.63,6.98,17.48,10.47,29.53,10.47c6.44,0,11.99-0.77,16.64-2.33c4.65-1.55,8.8-3.28,12.44-5.19c3.64-1.91,6.98-3.64,10.02-5.19
			c3.04-1.55,6.23-2.33,9.57-2.33c4.41,0,7.75,1.61,10.02,4.83l16.11,19.87c-5.73,6.56-11.9,11.9-18.52,16.02
			c-6.62,4.12-13.42,7.34-20.4,9.66c-6.98,2.33-13.96,3.94-20.94,4.83c-6.98,0.9-13.63,1.34-19.95,1.34
			c-13.01,0-25.2-2.12-36.6-6.35c-11.39-4.23-21.36-10.53-29.89-18.88c-8.53-8.35-15.27-18.73-20.22-31.14
			c-4.95-12.41-7.43-26.84-7.43-43.31c0-12.41,2.12-24.16,6.35-35.26c4.24-11.09,10.32-20.82,18.25-29.17
			c7.93-8.35,17.54-14.97,28.81-19.86C1162.73,849.64,1175.46,847.2,1189.66,847.2z M1190.74,885.49c-10.62,0-18.91,3.01-24.87,9.04
			c-5.97,6.03-9.9,14.7-11.81,26.04h69.26c0-4.41-0.57-8.71-1.7-12.89c-1.14-4.17-2.98-7.9-5.55-11.18
			c-2.57-3.28-5.94-5.93-10.11-7.96C1201.77,886.51,1196.7,885.49,1190.74,885.49z"/>
		<path class="st3" d="M1304.91,1035.64V850.06h34.36c3.46,0,6.35,0.78,8.68,2.33c2.33,1.55,3.97,3.88,4.92,6.98l3.04,10.02
			c3.1-3.22,6.32-6.17,9.66-8.86c3.34-2.68,6.95-5.01,10.83-6.98c3.88-1.97,8.05-3.52,12.53-4.65c4.47-1.13,9.39-1.7,14.76-1.7
			c11.21,0,20.49,2.89,27.83,8.68c7.34,5.79,12.91,13.51,16.73,23.17c3.1-5.73,6.89-10.62,11.36-14.67
			c4.47-4.06,9.31-7.34,14.5-9.84c5.19-2.51,10.68-4.35,16.46-5.55c5.79-1.19,11.54-1.79,17.27-1.79c10.62,0,20.04,1.58,28.28,4.74
			c8.23,3.16,15.12,7.76,20.67,13.78c5.55,6.03,9.76,13.42,12.62,22.19c2.86,8.77,4.29,18.7,4.29,29.8v117.93h-55.48V917.7
			c0-19.21-8.23-28.81-24.69-28.81c-7.52,0-13.75,2.48-18.7,7.43c-4.95,4.95-7.43,12.08-7.43,21.39v117.93h-55.48V917.7
			c0-10.62-2.09-18.07-6.26-22.37c-4.18-4.3-10.32-6.44-18.43-6.44c-5.01,0-9.75,1.14-14.23,3.4c-4.47,2.27-8.68,5.31-12.62,9.13
			v134.22H1304.91z"/>
	</g>
</g>
</svg>
