<svg id="Camada_1" data-name="Camada 1" xmlns="http://www.w3.org/2000/svg" viewBox="0 0 810 768"><defs><style>.cls-1{fill:#fff;}.cls-2,.cls-3{fill:#83cbd4;fill-rule:evenodd;}.cls-3{opacity:0.7;}.cls-4{font-size:137.73px;fill:#e09484;font-family:Lato-Black, Lato;font-weight:800;}</style></defs><rect class="cls-1" width="810" height="768"/><path class="cls-2" d="M522.75,178.11c-9.86-3.17-19.77-6.28-29.61-9.54-20.92-6.91-42.05-13-64.14-15.73a233.32,233.32,0,0,0-43.08-1c-16.15,1-32.29,2.21-48,5.52-9.92,2.09-19.44,5.21-27.28,11.11-4.28,3.22-7.43,7.05-6.9,12.51.31,3.26,2.23,5.77,4.84,7.93,5.59,4.64,12.41,7.43,19.27,10.12,9.14,3.58,18.6,6.58,27.38,10.77,13.93,6.64,23.79,16.56,26.76,30.59a27.2,27.2,0,0,1-.28,11.29c-1.63,7.38-9.06,9.49-16.09,4.9-3.6-2.36-7.09-4.85-10.67-7.22a97.63,97.63,0,0,0-35.25-14.3c-14.63-2.94-29.27-6-43.76-9.47-26.38-6.38-51-16.23-72.05-32.31-8.51-6.51-17.73-9.9-28.56-8.43a75.07,75.07,0,0,0-17.07,4.29c-8.49,3.32-16.53,7.49-24.8,11.26a68.3,68.3,0,0,1-7.59,3c-3.91,1.24-6-.06-5.46-3.73.61-3.93,2.09-7.76,3.12-11.65,1.71-6.42,6.66-11,11.19-15.8,15.31-16.24,32.77-30.32,53.59-41C211.79,119.25,237.48,113,264.77,111a465.7,465.7,0,0,1,52.05-.46c19.76.73,39.48,1,59.19,0,14.69-.78,29.28,1.27,43.72,4.17,23.76,4.77,46.48,12.41,68.51,21.83a328.41,328.41,0,0,1,44.66,23.12,33.32,33.32,0,0,1,6.49,5.27c3.33,3.51,2.71,7.15-1.08,10C533.8,178.34,528.57,178.66,522.75,178.11Z"/><path class="cls-3" d="M390.32,159.14c4.7-.19,9.12-.51,13.57-.49,6.6,0,13.22.24,19.83.48a5.62,5.62,0,0,1,3.13,1.05q13.57,11.64,27,23.46a25.59,25.59,0,0,1,3.91,4.8c2.73,4,1.28,7.25-3.77,8.54-4.13,1.06-8.21.37-12.19-1-10.59-3.59-18.91-10.06-27.08-16.77-7.86-6.47-15.86-12.8-23.79-19.19A5.64,5.64,0,0,1,390.32,159.14Z"/><path class="cls-3" d="M431.42,159.65c2.4.3,4.29.53,6.17.81a346.25,346.25,0,0,1,44.9,10.11,5,5,0,0,1,1.86.84c6.11,5.22,12.21,10.45,18.24,15.75a18.65,18.65,0,0,1,2.83,3.44c2.65,3.75,1.54,6.78-3,8.33-4.13,1.41-8.35.85-12.45-.35-9.06-2.63-16.79-7.37-23.81-13-11-8.72-21.69-17.73-34-25C432,160.49,431.93,160.32,431.42,159.65Z"/><path class="cls-3" d="M357.53,162.63c4.8-.61,8.73-1.16,12.7-1.6,4.52-.51,9-1,13.6-1.31a4.52,4.52,0,0,1,2.93.61c8.42,7.41,16.75,14.92,25.05,22.43a10.24,10.24,0,0,1,1.72,2.39c1.87,3.11,1.13,5.28-2.4,6.84a14.2,14.2,0,0,1-10.79,0c-4.64-1.74-9.55-3.49-13.37-6.28C377.07,178.48,367.72,170.68,357.53,162.63Z"/><path class="cls-2" d="M405.86,676.2a360.62,360.62,0,0,1-68.37-6.62,367.25,367.25,0,0,1-54.64-14.43c-4.14-1.49-8.31-2.89-12.29-4.63a35.86,35.86,0,0,1-7.55-4.34c-3.09-2.4-3.06-5.77-.58-8.4A16.53,16.53,0,0,1,276,632.32c7.81.53,15.64,1.25,23.33,2.44,18.49,2.91,37,5.53,55.84,6.43A198,198,0,0,0,397.75,639c11.68-2,23.35-4.21,34.79-7,11.27-2.77,22.44-6,33.29-9.82,9.36-3.27,17.92-7.95,24.23-14.88,3.17-3.48,5-7.31,3.67-11.8-.88-2.92-3.12-4.91-5.94-6.49-6.24-3.55-13.42-5.13-20.62-6.62-9.58-2-19.4-3.37-28.74-5.94-14.15-3.88-24.94-11.34-30.75-23.16a22.05,22.05,0,0,1-2.14-11.93c.64-7.31,7.43-10.55,15.23-7.3,2.28,1,4.52,2,6.74,3.05,14.85,7.16,31,10.12,48.1,10.46,20.06.42,40.11,1.27,59.85,4.42,20.29,3.23,39.54,8.75,57.08,17.92,11.22,5.85,22.67,4.92,34.2.5,9.11-3.51,17-8.62,24.72-13.87q5.6-3.78,11.29-7.47a21.9,21.9,0,0,1,3.15-1.65c3.69-1.59,6-.68,6.05,2.8.08,3.06-.62,6.15-.88,9.24-.67,8.18-6.06,14.71-11,21.4-13.19,17.9-29,33.94-48.91,46.95-17.92,11.71-37.87,20.05-59.55,25.65-17.6,4.54-35.56,7.39-53.69,9.67-21.79,2.77-43.57,5.46-65,9.88C424.09,674.8,414.88,675.16,405.86,676.2Z"/><path class="cls-3" d="M411.27,629.13a14.78,14.78,0,0,1-2.15.75C399,631.44,389,633,378.85,634.48a6,6,0,0,1-3.47-.56c-9.91-5.72-19.77-11.49-29.54-17.39a27.33,27.33,0,0,1-5.22-4.33c-3.49-3.47-2.42-6.89,2.64-8.81a22.74,22.74,0,0,1,12-.77c10.54,1.69,19.51,6.17,28.26,11s17.62,9.67,26.43,14.52C410.32,628.42,410.67,628.72,411.27,629.13Z"/><path class="cls-3" d="M370.7,635.61c-10.3-.33-20.62-.52-30.91-1-7-.36-13.84-1.21-20.77-1.87a5.74,5.74,0,0,1-2.22-.58c-6.65-3.83-13.28-7.67-19.85-11.61a21.93,21.93,0,0,1-3.75-3.07c-3.4-3.25-2.68-6.31,1.86-8.54,3.76-1.85,7.83-1.82,11.86-1.39,10.05,1.05,18.9,4.72,27.16,9.24,11.71,6.41,23.36,12.84,36.15,17.67a2.58,2.58,0,0,1,.57.41C370.77,635.09,370.74,635.37,370.7,635.61Z"/><path class="cls-3" d="M443,621.3c-2.6.72-4.91,1.41-7.23,2-5.93,1.49-11.86,3-17.82,4.41a5,5,0,0,1-3-.13c-9.78-5.22-19.72-10.27-28.17-17a17.47,17.47,0,0,1-1.4-1.31c-3.62-3.66-2.26-7.32,3.28-8.75,4.6-1.23,9.11-.63,13.56.47,9.64,2.36,17.83,6.91,25.87,11.73C432.9,615.56,437.79,618.28,443,621.3Z"/><text class="cls-4" transform="translate(143.08 363.88)">Doar</text><text class="cls-4" transform="translate(166.56 494.18)">faz Bem</text></svg>