<svg width="31" height="39" viewBox="0 0 31 39" fill="none" xmlns="http://www.w3.org/2000/svg">
<g clip-path="url(#clip0)">
<path d="M10.1489 38.4249H2.98272C2.27689 38.4249 1.70474 37.7051 1.70474 36.8171V2.18298C1.70474 1.295 2.27689 0.575195 2.98272 0.575195H10.149C10.8548 0.575195 11.427 1.295 11.427 2.18298V36.8171C11.4269 37.705 10.8547 38.4249 10.1489 38.4249Z" fill="#6CEDE1"/>
<path d="M19.871 38.4249H12.7049C11.999 38.4249 11.4269 37.7051 11.4269 36.8171V2.18298C11.4269 1.295 11.999 0.575195 12.7049 0.575195H19.8711C20.5769 0.575195 21.1491 1.295 21.1491 2.18298V36.8171C21.149 37.705 20.5769 38.4249 19.871 38.4249Z" fill="#6CEDE1"/>
<path d="M10.1489 0.575195H8.32019C9.02602 0.575195 9.59817 1.295 9.59817 2.18298V36.8171C9.59817 37.705 9.02602 38.4249 8.32019 38.4249H10.1489C10.8548 38.4249 11.4269 37.7051 11.4269 36.8171V2.18298C11.4269 1.295 10.8548 0.575195 10.1489 0.575195Z" fill="#49E5D6"/>
<path d="M19.8711 0.575195H18.0423C18.7481 0.575195 19.3203 1.295 19.3203 2.18298V36.8171C19.3203 37.705 18.7482 38.4249 18.0423 38.4249H19.8711C20.5768 38.4249 21.149 37.7051 21.149 36.8171V2.18298C21.149 1.295 20.5769 0.575195 19.8711 0.575195Z" fill="#49E5D6"/>
<path d="M7.41418 7.19599H5.71748C5.11095 7.19599 4.61926 6.57742 4.61926 5.81436C4.61926 5.05131 5.11095 4.43274 5.71748 4.43274H7.41418C8.0207 4.43274 8.51239 5.05131 8.51239 5.81436C8.51239 6.57742 8.0207 7.19599 7.41418 7.19599Z" fill="#49E5D6"/>
<path d="M7.41418 14.0389H5.71748C5.11095 14.0389 4.61926 13.4203 4.61926 12.6573C4.61926 11.8942 5.11095 11.2756 5.71748 11.2756H7.41418C8.0207 11.2756 8.51239 11.8942 8.51239 12.6573C8.51239 13.4203 8.0207 14.0389 7.41418 14.0389Z" fill="#49E5D6"/>
<path d="M7.41418 20.8817H5.71748C5.11095 20.8817 4.61926 20.2631 4.61926 19.5C4.61926 18.737 5.11095 18.1184 5.71748 18.1184H7.41418C8.0207 18.1184 8.51239 18.737 8.51239 19.5C8.51239 20.2631 8.0207 20.8817 7.41418 20.8817Z" fill="#49E5D6"/>
<path d="M7.41418 27.7246H5.71748C5.11095 27.7246 4.61926 27.106 4.61926 26.3429C4.61926 25.5799 5.11095 24.9613 5.71748 24.9613H7.41418C8.0207 24.9613 8.51239 25.5799 8.51239 26.3429C8.51239 27.106 8.0207 27.7246 7.41418 27.7246Z" fill="#49E5D6"/>
<path d="M7.41418 34.5673H5.71748C5.11095 34.5673 4.61926 33.9488 4.61926 33.1857C4.61926 32.4226 5.11095 31.8041 5.71748 31.8041H7.41418C8.0207 31.8041 8.51239 32.4226 8.51239 33.1857C8.51239 33.9488 8.0207 34.5673 7.41418 34.5673Z" fill="#49E5D6"/>
<path d="M17.1363 7.19599H15.4396C14.8331 7.19599 14.3414 6.57742 14.3414 5.81436C14.3414 5.05131 14.8331 4.43274 15.4396 4.43274H17.1363C17.7428 4.43274 18.2345 5.05131 18.2345 5.81436C18.2345 6.57742 17.7428 7.19599 17.1363 7.19599Z" fill="#49E5D6"/>
<path d="M17.1363 14.0389H15.4396C14.8331 14.0389 14.3414 13.4203 14.3414 12.6573C14.3414 11.8942 14.8331 11.2756 15.4396 11.2756H17.1363C17.7428 11.2756 18.2345 11.8942 18.2345 12.6573C18.2345 13.4203 17.7428 14.0389 17.1363 14.0389Z" fill="#49E5D6"/>
<path d="M17.1363 20.8817H15.4396C14.8331 20.8817 14.3414 20.2631 14.3414 19.5C14.3414 18.737 14.8331 18.1184 15.4396 18.1184H17.1363C17.7428 18.1184 18.2345 18.737 18.2345 19.5C18.2345 20.2631 17.7428 20.8817 17.1363 20.8817Z" fill="#49E5D6"/>
<path d="M17.1363 27.7246H15.4396C14.8331 27.7246 14.3414 27.106 14.3414 26.3429C14.3414 25.5799 14.8331 24.9613 15.4396 24.9613H17.1363C17.7428 24.9613 18.2345 25.5799 18.2345 26.3429C18.2345 27.106 17.7428 27.7246 17.1363 27.7246Z" fill="#49E5D6"/>
<path d="M25.5195 24.3204V22.6392H18.9665V24.3204C18.9665 25.6227 18.1273 26.6785 17.0921 26.6785C16.042 26.6785 15.1907 27.7495 15.1907 29.0705V36.0154C15.1907 37.3364 16.042 38.4074 17.0921 38.4074H27.3939C28.444 38.4074 29.2953 37.3364 29.2953 36.0154V29.0705C29.2953 27.7495 28.444 26.6785 27.3939 26.6785C26.3587 26.6785 25.5195 25.6227 25.5195 24.3204Z" fill="#FDFCFC"/>
<path d="M26.7424 22.6391H17.7436C17.4374 22.6391 17.1892 22.3268 17.1892 21.9416V17.3135C17.1892 16.9282 17.4374 16.616 17.7436 16.616H26.7424C27.0485 16.616 27.2968 16.9282 27.2968 17.3135V21.9416C27.2968 22.3268 27.0485 22.6391 26.7424 22.6391Z" fill="#49E5D6"/>
<path d="M24.8218 38.4073H19.6642V31.0916C19.6642 30.7353 19.8938 30.4465 20.177 30.4465H24.309C24.5923 30.4465 24.8218 30.7353 24.8218 31.0916V38.4073H24.8218Z" fill="#49E5D6"/>
<path d="M27.3939 26.6785C26.3586 26.6785 25.5195 25.6227 25.5195 24.3204V22.639H24.0565V25.9359C24.0565 27.2382 24.8957 28.294 25.9309 28.294C26.9809 28.294 27.8322 29.3649 27.8322 30.686V37.6308C27.8322 37.8878 27.7997 38.135 27.74 38.367C28.6247 38.1621 29.2952 37.1875 29.2952 36.0152V29.0704C29.2953 27.7494 28.444 26.6785 27.3939 26.6785Z" fill="#EEEEEE"/>
<path d="M26.7423 16.616H24.9136C25.2198 16.616 25.468 16.9282 25.468 17.3134V21.9416C25.468 22.3268 25.2198 22.6391 24.9136 22.6391H26.7423C27.0485 22.6391 27.2968 22.3268 27.2968 21.9416V17.3134C27.2968 16.9282 27.0485 16.616 26.7423 16.616Z" fill="#49E5D6"/>
<path d="M24.309 30.4465H22.4803C22.7635 30.4465 22.993 30.7353 22.993 31.0916V38.4073H24.8218V31.0916C24.8218 30.7353 24.5922 30.4465 24.309 30.4465Z" fill="#49E5D6"/>
<path d="M5.71748 7.77112H7.41417C8.27185 7.77112 8.96957 6.89327 8.96957 5.81433C8.96957 4.7354 8.27185 3.85754 7.41417 3.85754H5.71748C4.8598 3.85754 4.16208 4.7354 4.16208 5.81433C4.16208 6.89335 4.8598 7.77112 5.71748 7.77112ZM5.71748 5.00788H7.41417C7.76767 5.00788 8.05521 5.36969 8.05521 5.81433C8.05521 6.25905 7.76767 6.62079 7.41417 6.62079H5.71748C5.36398 6.62079 5.07644 6.25898 5.07644 5.81433C5.07644 5.36969 5.36398 5.00788 5.71748 5.00788Z" fill="#D8998A"/>
<path d="M5.71748 14.614H7.41417C8.27185 14.614 8.96957 13.7362 8.96957 12.6572C8.96957 11.5782 8.27185 10.7004 7.41417 10.7004H5.71748C4.8598 10.7004 4.16208 11.5782 4.16208 12.6572C4.16208 13.7362 4.8598 14.614 5.71748 14.614ZM5.71748 11.8507H7.41417C7.76767 11.8507 8.05521 12.2124 8.05521 12.6572C8.05521 13.1019 7.76767 13.4636 7.41417 13.4636H5.71748C5.36398 13.4636 5.07644 13.1019 5.07644 12.6572C5.07644 12.2125 5.36398 11.8507 5.71748 11.8507Z" fill="#D8998A"/>
<path d="M5.71748 21.4568H7.41417C8.27185 21.4568 8.96957 20.579 8.96957 19.5C8.96957 18.421 8.27185 17.5432 7.41417 17.5432H5.71748C4.8598 17.5432 4.16208 18.421 4.16208 19.5C4.16208 20.579 4.8598 21.4568 5.71748 21.4568ZM5.71748 18.6935H7.41417C7.76767 18.6935 8.05521 19.0553 8.05521 19.5C8.05521 19.9447 7.76767 20.3065 7.41417 20.3065H5.71748C5.36398 20.3065 5.07644 19.9447 5.07644 19.5C5.07644 19.0553 5.36398 18.6935 5.71748 18.6935Z" fill="#D8998A"/>
<path d="M5.71748 28.2996H7.41417C8.27185 28.2996 8.96957 27.4218 8.96957 26.3428C8.96957 25.2638 8.27185 24.386 7.41417 24.386H5.71748C4.8598 24.386 4.16208 25.2638 4.16208 26.3428C4.16208 27.4218 4.8598 28.2996 5.71748 28.2996ZM5.71748 25.5363H7.41417C7.76767 25.5363 8.05521 25.8981 8.05521 26.3428C8.05521 26.7875 7.76767 27.1492 7.41417 27.1492H5.71748C5.36398 27.1492 5.07644 26.7875 5.07644 26.3428C5.07644 25.8981 5.36398 25.5363 5.71748 25.5363Z" fill="#D8998A"/>
<path d="M5.71748 35.1425H7.41417C8.27185 35.1425 8.96957 34.2647 8.96957 33.1857C8.96957 32.1067 8.27185 31.2289 7.41417 31.2289H5.71748C4.8598 31.2289 4.16208 32.1067 4.16208 33.1857C4.16208 34.2647 4.8598 35.1425 5.71748 35.1425ZM5.71748 32.3792H7.41417C7.76767 32.3792 8.05521 32.741 8.05521 33.1857C8.05521 33.6304 7.76767 33.9921 7.41417 33.9921H5.71748C5.36398 33.9921 5.07644 33.6304 5.07644 33.1857C5.07644 32.741 5.36398 32.3792 5.71748 32.3792Z" fill="#D8998A"/>
<path d="M15.4396 7.77112H17.1363C17.994 7.77112 18.6917 6.89327 18.6917 5.81433C18.6917 4.7354 17.994 3.85754 17.1363 3.85754H15.4396C14.5819 3.85754 13.8842 4.7354 13.8842 5.81433C13.8842 6.89335 14.5819 7.77112 15.4396 7.77112ZM15.4396 5.00788H17.1363C17.4898 5.00788 17.7773 5.36969 17.7773 5.81433C17.7773 6.25905 17.4898 6.62079 17.1363 6.62079H15.4396C15.0861 6.62079 14.7986 6.25898 14.7986 5.81433C14.7986 5.36969 15.0861 5.00788 15.4396 5.00788Z" fill="#D8998A"/>
<path d="M15.4396 14.614H17.1363C17.994 14.614 18.6917 13.7362 18.6917 12.6572C18.6917 11.5782 17.994 10.7004 17.1363 10.7004H15.4396C14.5819 10.7004 13.8842 11.5782 13.8842 12.6572C13.8842 13.7362 14.5819 14.614 15.4396 14.614ZM15.4396 11.8507H17.1363C17.4898 11.8507 17.7773 12.2124 17.7773 12.6572C17.7773 13.1019 17.4898 13.4636 17.1363 13.4636H15.4396C15.0861 13.4636 14.7986 13.1019 14.7986 12.6572C14.7986 12.2125 15.0861 11.8507 15.4396 11.8507Z" fill="#D8998A"/>
<path d="M27.3939 26.1033C26.6124 26.1033 25.9767 25.3035 25.9767 24.3204V23.2143H26.7423C27.3001 23.2143 27.7539 22.6434 27.7539 21.9417V17.3134C27.7539 16.6117 27.3001 16.0408 26.7423 16.0408H24.9699C24.7175 16.0408 24.5128 16.2983 24.5128 16.6159C24.5128 16.9336 24.7175 17.1911 24.9699 17.1911H26.7423C26.7959 17.1911 26.8396 17.246 26.8396 17.3134V21.9417C26.8396 22.0091 26.7959 22.064 26.7423 22.064H24.5777V19.9507C24.5777 19.6331 24.373 19.3756 24.1205 19.3756C23.868 19.3756 23.6633 19.6331 23.6633 19.9507V22.064H22.7002V19.9507C22.7002 19.6331 22.4955 19.3756 22.243 19.3756C21.9905 19.3756 21.7858 19.6331 21.7858 19.9507V22.064H20.8227V19.9507C20.8227 19.6331 20.618 19.3756 20.3655 19.3756C20.113 19.3756 19.9083 19.6331 19.9083 19.9507V22.064H17.7436C17.69 22.064 17.6464 22.0091 17.6464 21.9417V17.3134C17.6464 17.246 17.69 17.1911 17.7436 17.1911H23.1412C23.3937 17.1911 23.5984 16.9336 23.5984 16.6159C23.5984 16.2983 23.3937 16.0408 23.1412 16.0408H21.6062V2.18295C21.6062 0.979239 20.8279 0 19.8711 0H12.7049C12.1997 0 11.7443 0.273242 11.4269 0.708144C11.1095 0.273242 10.6541 0 10.1489 0H2.98272C2.02593 0 1.24756 0.979239 1.24756 2.18295V11.1669C1.24756 11.4845 1.45225 11.742 1.70474 11.742C1.95723 11.742 2.16192 11.4846 2.16192 11.1669V2.18295C2.16192 1.61353 2.53011 1.15033 2.98272 1.15033H10.149C10.6015 1.15033 10.9698 1.61353 10.9698 2.18295V36.8171C10.9698 37.3865 10.6016 37.8497 10.149 37.8497H2.98272C2.53017 37.8497 2.16199 37.3865 2.16199 36.8171V13.4675C2.16199 13.1499 1.95729 12.8924 1.7048 12.8924C1.45232 12.8924 1.24762 13.1499 1.24762 13.4675V36.8171C1.24762 38.0207 2.02599 38.9999 2.98272 38.9999H10.149C10.6542 38.9999 11.1095 38.7267 11.427 38.2918C11.7444 38.7268 12.1997 38.9999 12.7049 38.9999L27.394 38.9824C28.6945 38.9824 29.7525 37.6514 29.7525 36.0153V29.0704C29.7524 27.4344 28.6944 26.1033 27.3939 26.1033ZM15.3086 27.1322C15.0177 27.0559 14.7986 26.7309 14.7986 26.3427C14.7986 25.898 15.0861 25.5363 15.4396 25.5363H17.1363C17.369 25.5363 17.5774 25.6934 17.69 25.9363C17.5082 26.0432 17.3057 26.1033 17.0921 26.1033C16.3801 26.1033 15.7414 26.5028 15.3086 27.1322ZM11.8841 36.8171V2.18295C11.8841 1.61361 12.2523 1.15033 12.7049 1.15033H19.8711C20.3237 1.15033 20.6919 1.61353 20.6919 2.18295V16.0408H17.7436C17.1858 16.0408 16.732 16.6117 16.732 17.3134V17.5432H15.4396C14.5819 17.5432 13.8842 18.4209 13.8842 19.5C13.8842 20.579 14.5819 21.4568 15.4396 21.4568H16.732V21.9416C16.732 22.6433 17.1858 23.2142 17.7436 23.2142H18.5093V24.3203C18.5093 24.6104 18.4536 24.8843 18.3554 25.1266C18.0673 24.6697 17.6234 24.3859 17.1363 24.3859H15.4396C14.5819 24.3859 13.8842 25.2637 13.8842 26.3427C13.8842 27.1589 14.2837 27.8597 14.8495 28.1528C14.7746 28.4419 14.7335 28.7502 14.7335 29.0704V36.0153C14.7335 36.7073 14.9233 37.3443 15.2402 37.8496H12.7049C12.2523 37.8497 11.8841 37.3865 11.8841 36.8171ZM16.732 20.3064H15.4396C15.0861 20.3064 14.7986 19.9447 14.7986 19.5C14.7986 19.0552 15.0861 18.6935 15.4396 18.6935H16.732V20.3064ZM24.3646 37.8322H20.1214V31.0917C20.1214 31.0531 20.1463 31.0218 20.177 31.0218H24.309C24.3396 31.0218 24.3646 31.0531 24.3646 31.0917V37.8322ZM28.838 36.0153C28.838 37.0171 28.1902 37.8322 27.3939 37.8322H25.2789V31.0917C25.2789 30.4188 24.8438 29.8714 24.309 29.8714H20.177C19.6421 29.8714 19.207 30.4188 19.207 31.0917V37.8322H17.0921C16.2958 37.8322 15.6479 37.0171 15.6479 36.0153V29.0705C15.6479 28.0687 16.2958 27.2537 17.0921 27.2537C18.3777 27.2537 19.4237 25.9378 19.4237 24.3204V23.2143H25.0623V24.3204C25.0623 25.9378 26.1083 27.2537 27.394 27.2537C28.1903 27.2537 28.8381 28.0687 28.8381 29.0705L28.838 36.0153Z" fill="#D8998A"/>
</g>
<defs>
<clipPath id="clip0">
<rect width="31" height="39" fill="white"/>
</clipPath>
</defs>
</svg>
