<svg width="36" height="36" viewBox="0 0 36 36" fill="none" xmlns="http://www.w3.org/2000/svg">
<g clip-path="url(#clip0)">
<path d="M22.5969 24.7504L24.8004 22.5468L26.3914 24.1378L24.1879 26.3414L22.5969 24.7504Z" fill="#D8998A"/>
<path d="M25.4598 25.2609L25.2649 25.4558C24.3862 26.3344 24.3862 27.7591 25.2649 28.6377L31.0362 34.4091C31.9149 35.2877 33.3395 35.2877 34.2182 34.4091L34.4131 34.2142C35.2918 33.3355 35.2917 31.9109 34.4131 31.0322L28.6418 25.2609C27.7631 24.3822 26.3385 24.3822 25.4598 25.2609Z" fill="white"/>
<path d="M26.2034 26.2049C25.7377 25.7392 24.9826 25.7392 24.5169 26.2049C24.0512 26.6706 24.0512 27.4256 24.5169 27.8913L31.7838 35.1582C32.2495 35.6239 33.0045 35.6239 33.4702 35.1582C33.9359 34.6925 33.9359 33.9374 33.4702 33.4717L26.2034 26.2049Z" fill="#49E5D6"/>
<path d="M14.0625 0.5625C12.2897 0.5625 10.5342 0.911688 8.89627 1.59013C7.25838 2.26856 5.77015 3.26297 4.51656 4.51656C3.26297 5.77015 2.26856 7.25838 1.59013 8.89627C0.911688 10.5342 0.5625 12.2897 0.5625 14.0625C0.5625 15.8353 0.911688 17.5908 1.59013 19.2287C2.26856 20.8666 3.26297 22.3549 4.51656 23.6084C5.77015 24.862 7.25838 25.8564 8.89627 26.5349C10.5342 27.2133 12.2897 27.5625 14.0625 27.5625C15.8353 27.5625 17.5908 27.2133 19.2287 26.5349C20.8666 25.8564 22.3549 24.862 23.6084 23.6084C24.862 22.3549 25.8564 20.8666 26.5349 19.2287C27.2133 17.5908 27.5625 15.8353 27.5625 14.0625C27.5625 12.2897 27.2133 10.5342 26.5349 8.89627C25.8564 7.25838 24.862 5.77015 23.6084 4.51656C22.3549 3.26297 20.8666 2.26856 19.2287 1.59013C17.5908 0.911688 15.8353 0.5625 14.0625 0.5625Z" fill="#C4C4C4"/>
<path d="M6.26625 21.8587L21.8588 6.26623C22.0913 6.03358 22.3721 5.85475 22.6812 5.74235C22.9904 5.62995 23.3204 5.58671 23.6481 5.61567C23.9758 5.64463 24.2931 5.74509 24.5778 5.90997C24.8624 6.07485 25.1075 6.30015 25.2956 6.56998C27.0415 9.16657 27.8312 12.289 27.5297 15.4034C27.2282 18.5178 25.8542 21.4307 23.6427 23.6442C21.4312 25.8577 18.5195 27.2343 15.4054 27.5386C12.2913 27.8429 9.16817 27.056 6.57 25.3125C6.29733 25.1245 6.06951 24.8787 5.90281 24.5925C5.7361 24.3064 5.63462 23.987 5.60561 23.6571C5.57659 23.3272 5.62076 22.9949 5.73496 22.6841C5.84916 22.3732 6.03057 22.0914 6.26625 21.8587Z" fill="white"/>
<path d="M14.0625 3.9375C11.3772 3.9375 8.80185 5.00424 6.90304 6.90304C5.00424 8.80185 3.9375 11.3772 3.9375 14.0625C3.9375 16.7478 5.00424 19.3231 6.90304 21.222C8.80185 23.1208 11.3772 24.1875 14.0625 24.1875C16.7478 24.1875 19.3231 23.1208 21.222 21.222C23.1208 19.3231 24.1875 16.7478 24.1875 14.0625C24.1875 11.3772 23.1208 8.80185 21.222 6.90304C19.3231 5.00424 16.7478 3.9375 14.0625 3.9375Z" fill="#49E5D6"/>
<path d="M14.0625 10.125C13.0182 10.125 12.0167 10.5398 11.2783 11.2783C10.5398 12.0167 10.125 13.0182 10.125 14.0625C10.125 15.1068 10.5398 16.1083 11.2783 16.8467C12.0167 17.5852 13.0182 18 14.0625 18C15.1068 18 16.1083 17.5852 16.8467 16.8467C17.5852 16.1083 18 15.1068 18 14.0625C18 13.0182 17.5852 12.0167 16.8467 11.2783C16.1083 10.5398 15.1068 10.125 14.0625 10.125Z" fill="#D8998A"/>
<path d="M11.8125 9.5625C11.2158 9.5625 10.6435 9.79955 10.2215 10.2215C9.79955 10.6435 9.5625 11.2158 9.5625 11.8125C9.5625 12.4092 9.79955 12.9815 10.2215 13.4035C10.6435 13.8254 11.2158 14.0625 11.8125 14.0625C12.4092 14.0625 12.9815 13.8254 13.4035 13.4035C13.8254 12.9815 14.0625 12.4092 14.0625 11.8125C14.0625 11.2158 13.8254 10.6435 13.4035 10.2215C12.9815 9.79955 12.4092 9.5625 11.8125 9.5625ZM16.5938 15.75C16.37 15.75 16.1554 15.8389 15.9971 15.9971C15.8389 16.1554 15.75 16.37 15.75 16.5938C15.75 16.8175 15.8389 17.0321 15.9971 17.1904C16.1554 17.3486 16.37 17.4375 16.5938 17.4375C16.8175 17.4375 17.0321 17.3486 17.1904 17.1904C17.3486 17.0321 17.4375 16.8175 17.4375 16.5938C17.4375 16.37 17.3486 16.1554 17.1904 15.9971C17.0321 15.8389 16.8175 15.75 16.5938 15.75Z" fill="#F3F3F3"/>
<path d="M21.6225 6.50813C20.1278 5.01345 18.2235 3.99556 16.1503 3.58317C14.0771 3.17079 11.9282 3.38244 9.97536 4.19135C8.02247 5.00026 6.35331 6.3701 5.17895 8.12765C4.00459 9.8852 3.37778 11.9515 3.37778 14.0653C3.37778 16.1791 4.00459 18.2454 5.17895 20.003C6.35331 21.7605 8.02247 23.1304 9.97536 23.9393C11.9282 24.7482 14.0771 24.9598 16.1503 24.5475C18.2235 24.1351 20.1278 23.1172 21.6225 21.6225C22.623 20.6346 23.4174 19.4579 23.9596 18.1607C24.5018 16.8634 24.781 15.4713 24.781 14.0653C24.781 12.6593 24.5018 11.2672 23.9596 9.96997C23.4174 8.67268 22.623 7.49598 21.6225 6.50813ZM20.8125 20.8125C19.4765 22.1532 17.7727 23.0672 15.9168 23.4388C14.061 23.8105 12.1366 23.6231 10.3873 22.9003C8.63809 22.1775 7.14267 20.9518 6.09047 19.3786C5.03827 17.8053 4.4766 15.9552 4.4766 14.0625C4.4766 12.1698 5.03827 10.3197 6.09047 8.74642C7.14267 7.17316 8.63809 5.94753 10.3873 5.22474C12.1366 4.50195 14.061 4.31451 15.9168 4.68617C17.7727 5.05782 19.4765 5.97185 20.8125 7.3125C21.7044 8.19587 22.4123 9.24722 22.8955 10.4058C23.3786 11.5644 23.6274 12.8072 23.6274 14.0625C23.6274 15.3178 23.3786 16.5606 22.8955 17.7192C22.4123 18.8778 21.7044 19.9291 20.8125 20.8125Z" fill="#D8998A"/>
<path d="M17.55 8.28003C18.0166 8.5626 18.4473 8.90069 18.8325 9.2869C18.9377 9.39282 19.0806 9.45262 19.2299 9.45315C19.3792 9.45368 19.5225 9.39489 19.6284 9.28971C19.7344 9.18454 19.7942 9.04159 19.7947 8.89233C19.7952 8.74306 19.7364 8.5997 19.6313 8.49378C19.1801 8.04086 18.6758 7.64422 18.1294 7.31253C18.0039 7.26079 17.8639 7.25619 17.7352 7.29958C17.6066 7.34298 17.498 7.43143 17.4295 7.54862C17.3609 7.66581 17.3371 7.80384 17.3623 7.93723C17.3876 8.07062 17.4602 8.19038 17.5669 8.2744L17.55 8.28003ZM14.8388 6.2269C13.6815 6.11052 12.5128 6.25193 11.4167 6.64096C10.3206 7.02999 9.32432 7.65699 8.49938 8.4769C8.4405 8.52733 8.39268 8.58938 8.35891 8.65917C8.32515 8.72895 8.30618 8.80497 8.30318 8.88243C8.30019 8.9599 8.31325 9.03715 8.34152 9.10933C8.3698 9.18152 8.4127 9.24707 8.46752 9.30189C8.52234 9.35671 8.58789 9.39961 8.66008 9.42788C8.73226 9.45616 8.80951 9.46922 8.88698 9.46623C8.96444 9.46323 9.04045 9.44426 9.11024 9.4105C9.18003 9.37673 9.24208 9.32891 9.29251 9.27003C9.99863 8.56331 10.8528 8.02214 11.7935 7.68558C12.7341 7.34901 13.7377 7.22544 14.7319 7.32378C14.8058 7.33116 14.8804 7.32393 14.9514 7.30248C15.0225 7.28104 15.0886 7.24581 15.1461 7.1988C15.2036 7.15179 15.2512 7.09392 15.2863 7.0285C15.3214 6.96308 15.3432 6.89139 15.3506 6.81753C15.358 6.74366 15.3508 6.66906 15.3293 6.59798C15.3079 6.52691 15.2727 6.46076 15.2257 6.4033C15.1786 6.34585 15.1208 6.29821 15.0554 6.26312C14.9899 6.22803 14.9183 6.20616 14.8444 6.19878L14.8388 6.2269Z" fill="#D8998A"/>
<path d="M34.8055 30.6318L28.9893 24.8155C28.7231 24.5515 28.4069 24.3433 28.0591 24.2032C27.7114 24.0631 27.3391 23.994 26.9643 23.9999C26.9643 23.9211 25.4061 22.363 25.4061 22.363C27.4984 19.504 28.4345 15.9607 28.0273 12.4413C27.62 8.92203 25.8993 5.68612 23.2093 3.38059C20.5193 1.07507 17.0582 -0.130167 13.5181 0.00586201C9.97785 0.141891 6.61945 1.60916 4.1143 4.1143C1.60916 6.61945 0.141891 9.97785 0.00586201 13.5181C-0.130167 17.0582 1.07507 20.5193 3.38059 23.2093C5.68612 25.8993 8.92203 27.62 12.4413 28.0273C15.9607 28.4345 19.504 27.4984 22.363 25.4061C22.363 25.4061 23.9268 26.9361 23.9999 26.9643C24.073 26.9924 23.9999 26.9643 23.9999 27.0036C23.9992 27.3732 24.0714 27.7393 24.2123 28.081C24.3533 28.4227 24.5601 28.7332 24.8211 28.9949L30.6318 34.8055C31.1592 35.3328 31.8744 35.629 32.6202 35.629C33.366 35.629 34.0812 35.3328 34.6086 34.8055L34.7999 34.6143C35.3272 34.0868 35.6234 33.3716 35.6234 32.6258C35.6234 31.8801 35.3272 31.1648 34.7999 30.6374L34.8055 30.6318ZM1.12302 14.0605C1.12302 11.5017 1.88179 9.00039 3.30338 6.87283C4.72497 4.74527 6.74553 3.08703 9.10955 2.10782C11.4736 1.12862 14.0749 0.872411 16.5845 1.37161C19.0941 1.8708 21.3994 3.10298 23.2087 4.91232C25.0181 6.72166 26.2502 9.02691 26.7494 11.5365C27.2486 14.0462 26.9924 16.6475 26.0132 19.0115C25.034 21.3755 23.3758 23.3961 21.2482 24.8177C19.1206 26.2392 16.6193 26.998 14.0605 26.998C10.6293 26.998 7.33857 25.635 4.91232 23.2087C2.48607 20.7825 1.12302 17.4918 1.12302 14.0605ZM24.8155 25.0068C24.6041 25.2247 24.4293 25.4755 24.298 25.7493L23.2461 24.6974C23.7665 24.2477 24.2534 23.7608 24.703 23.2405L25.7605 24.298C25.4867 24.4293 25.236 24.6041 25.018 24.8155L24.8155 25.0068ZM34.0068 33.8155L33.8155 34.0068C33.4991 34.3228 33.0702 34.5003 32.623 34.5003C32.1758 34.5003 31.7469 34.3228 31.4305 34.0068L25.6143 28.1905C25.2983 27.8741 25.1208 27.4452 25.1208 26.998C25.1208 26.5508 25.2983 26.1219 25.6143 25.8055L25.8055 25.6143C26.1219 25.2983 26.5508 25.1208 26.998 25.1208C27.4452 25.1208 27.8741 25.2983 28.1905 25.6143L34.0068 31.4305C34.3228 31.7469 34.5003 32.1758 34.5003 32.623C34.5003 33.0702 34.3228 33.4991 34.0068 33.8155Z" fill="#D8998A"/>
<path d="M19.2319 18.4387C19.1243 18.3466 18.9859 18.2984 18.8443 18.3039C18.7027 18.3094 18.5684 18.3681 18.4682 18.4682C18.3681 18.5684 18.3094 18.7027 18.3039 18.8443C18.2984 18.9858 18.3466 19.1243 18.4387 19.2319L19.2319 20.025C19.3395 20.1172 19.4779 20.1653 19.6195 20.1598C19.761 20.1544 19.8953 20.0957 19.9955 19.9955C20.0957 19.8953 20.1544 19.761 20.1598 19.6195C20.1653 19.4779 20.1172 19.3395 20.025 19.2319L19.2319 18.4387ZM8.89313 18.4387L8.1 19.2319C8.04112 19.2823 7.99329 19.3444 7.95953 19.4141C7.92577 19.4839 7.90679 19.5599 7.9038 19.6374C7.90081 19.7149 7.91386 19.7921 7.94214 19.8643C7.97042 19.9365 8.01332 20.002 8.06813 20.0569C8.12295 20.1117 8.18851 20.1546 8.26069 20.1829C8.33288 20.2111 8.41013 20.2242 8.48759 20.2212C8.56506 20.2182 8.64107 20.1992 8.71086 20.1655C8.78064 20.1317 8.8427 20.0839 8.89313 20.025L9.68625 19.2319C9.7784 19.1243 9.82656 18.9858 9.82109 18.8443C9.81562 18.7027 9.75693 18.5684 9.65675 18.4682C9.55658 18.3681 9.42229 18.3094 9.28072 18.3039C9.13915 18.2984 9.00073 18.3466 8.89313 18.4387ZM21.9375 13.5H20.8125C20.6633 13.5 20.5202 13.5593 20.4148 13.6648C20.3093 13.7702 20.25 13.9133 20.25 14.0625C20.25 14.2117 20.3093 14.3548 20.4148 14.4602C20.5202 14.5657 20.6633 14.625 20.8125 14.625H21.9375C22.0867 14.625 22.2298 14.5657 22.3352 14.4602C22.4407 14.3548 22.5 14.2117 22.5 14.0625C22.5 13.9133 22.4407 13.7702 22.3352 13.6648C22.2298 13.5593 22.0867 13.5 21.9375 13.5ZM7.875 14.0625C7.875 13.9133 7.81574 13.7702 7.71025 13.6648C7.60476 13.5593 7.46168 13.5 7.3125 13.5H6.1875C6.03832 13.5 5.89524 13.5593 5.78975 13.6648C5.68426 13.7702 5.625 13.9133 5.625 14.0625C5.625 14.2117 5.68426 14.3548 5.78975 14.4602C5.89524 14.5657 6.03832 14.625 6.1875 14.625H7.3125C7.46168 14.625 7.60476 14.5657 7.71025 14.4602C7.81574 14.3548 7.875 14.2117 7.875 14.0625ZM14.0625 20.25C13.9133 20.25 13.7702 20.3093 13.6648 20.4148C13.5593 20.5202 13.5 20.6633 13.5 20.8125V21.9375C13.5 22.0867 13.5593 22.2298 13.6648 22.3352C13.7702 22.4407 13.9133 22.5 14.0625 22.5C14.2117 22.5 14.3548 22.4407 14.4602 22.3352C14.5657 22.2298 14.625 22.0867 14.625 21.9375V20.8125C14.625 20.6633 14.5657 20.5202 14.4602 20.4148C14.3548 20.3093 14.2117 20.25 14.0625 20.25ZM21.5325 16.6219L20.4975 16.1831C20.429 16.1509 20.3547 16.1328 20.279 16.13C20.2034 16.1272 20.128 16.1397 20.0572 16.1667C19.9865 16.1937 19.922 16.2347 19.8675 16.2873C19.813 16.3399 19.7697 16.4029 19.7402 16.4726C19.7106 16.5423 19.6955 16.6172 19.6956 16.6929C19.6957 16.7686 19.7111 16.8435 19.7408 16.9131C19.7706 16.9828 19.814 17.0457 19.8687 17.0981C19.9233 17.1505 19.988 17.1913 20.0588 17.2181L21.0938 17.6569C21.1623 17.6891 21.2366 17.7072 21.3122 17.71C21.3879 17.7128 21.4633 17.7003 21.534 17.6733C21.6047 17.6463 21.6693 17.6053 21.7237 17.5527C21.7782 17.5001 21.8215 17.4371 21.8511 17.3674C21.8806 17.2977 21.8958 17.2228 21.8957 17.1471C21.8956 17.0714 21.8802 16.9965 21.8504 16.9269C21.8207 16.8572 21.7772 16.7943 21.7226 16.7419C21.6679 16.6895 21.6033 16.6487 21.5325 16.6219ZM11.6438 19.7606C11.5065 19.7026 11.3518 19.7013 11.2136 19.7572C11.0755 19.8131 10.9651 19.9216 10.9069 20.0588L10.4681 21.0938C10.4359 21.1623 10.4178 21.2366 10.415 21.3122C10.4122 21.3879 10.4247 21.4633 10.4517 21.534C10.4787 21.6047 10.5197 21.6693 10.5723 21.7237C10.6249 21.7782 10.6879 21.8215 10.7576 21.8511C10.8273 21.8806 10.9022 21.8958 10.9779 21.8957C11.0536 21.8956 11.1285 21.8802 11.1981 21.8504C11.2678 21.8207 11.3307 21.7772 11.3831 21.7226C11.4355 21.6679 11.4763 21.6033 11.5031 21.5325L11.9419 20.4975C11.9999 20.3602 12.0012 20.2055 11.9453 20.0674C11.8894 19.9292 11.7809 19.8189 11.6438 19.7606ZM8.325 16.38C8.26883 16.2422 8.16034 16.1323 8.02328 16.0743C7.88622 16.0163 7.73177 16.015 7.59375 16.0706L6.55312 16.4925C6.48035 16.5169 6.41334 16.556 6.35623 16.6073C6.29912 16.6586 6.25312 16.7211 6.22105 16.7908C6.18899 16.8606 6.17154 16.9361 6.16979 17.0129C6.16803 17.0896 6.18201 17.1659 6.21085 17.2371C6.23969 17.3082 6.28279 17.3727 6.3375 17.4266C6.3922 17.4804 6.45735 17.5225 6.52894 17.5503C6.60053 17.578 6.67703 17.5908 6.75374 17.5878C6.83046 17.5849 6.90575 17.5663 6.975 17.5331L8.01562 17.1112C8.15344 17.0551 8.26337 16.9466 8.32136 16.8095C8.37934 16.6725 8.38065 16.518 8.325 16.38ZM17.1112 20.1094C17.0494 19.9802 16.9406 19.8795 16.8071 19.8277C16.6735 19.776 16.5253 19.7771 16.3925 19.8309C16.2598 19.8848 16.1526 19.9872 16.0928 20.1173C16.033 20.2474 16.025 20.3955 16.0706 20.5312L16.4925 21.5719C16.5543 21.7011 16.6631 21.8018 16.7967 21.8535C16.9302 21.9053 17.0785 21.9041 17.2112 21.8503C17.3439 21.7965 17.4511 21.6941 17.511 21.564C17.5708 21.4338 17.5787 21.2858 17.5331 21.15L17.1112 20.1094Z" fill="#D8998A"/>
</g>
<defs>
<clipPath id="clip0">
<rect width="36" height="36" fill="white"/>
</clipPath>
</defs>
</svg>
