<svg width="41" height="41" viewBox="0 0 41 41" fill="none" xmlns="http://www.w3.org/2000/svg">
<path d="M1.92188 19.8594H39.0781V35.2344H1.92188V19.8594Z" fill="white"/>
<path d="M1.92188 32.6719H39.0781V35.2344H1.92188V32.6719ZM1.92188 19.8594H39.0781V22.4219H1.92188V19.8594Z" fill="#C4C4C4"/>
<path d="M6.29734 9.07766L2.67141 12.7036C2.43352 12.9417 2.24488 13.2244 2.11628 13.5355C1.98767 13.8466 1.92161 14.18 1.92188 14.5166V18.5781C1.92188 18.9179 2.05686 19.2438 2.29715 19.4841C2.53743 19.7244 2.86332 19.8594 3.20313 19.8594H37.7969C38.1367 19.8594 38.4626 19.7244 38.7029 19.4841C38.9431 19.2438 39.0781 18.9179 39.0781 18.5781V14.5166C39.0784 14.18 39.0123 13.8466 38.8837 13.5355C38.7551 13.2244 38.5665 12.9417 38.3286 12.7036L34.7027 9.07766C34.4645 8.83977 34.1818 8.65113 33.8707 8.52253C33.5597 8.39392 33.2263 8.32786 32.8897 8.32813H8.11031C7.7737 8.32786 7.44034 8.39392 7.12926 8.52253C6.81819 8.65113 6.5355 8.83977 6.29734 9.07766Z" fill="#49E5D6"/>
<path d="M37.1562 11.5312L34.7027 9.07766C34.4645 8.83977 34.1818 8.65113 33.8707 8.52253C33.5597 8.39392 33.2263 8.32786 32.8897 8.32813H8.11031C7.7737 8.32786 7.44034 8.39392 7.12926 8.52253C6.81819 8.65113 6.5355 8.83977 6.29734 9.07766L3.84375 11.5312H37.1562Z" fill="#D8998A"/>
<path d="M27.5469 18.5781H32.6719V22.4219H27.5469V18.5781ZM8.32812 18.5781H13.4531V22.4219H8.32812V18.5781Z" fill="#49E5D6"/>
<path d="M38.7834 12.2488L36.9705 10.4358L35.1575 8.62281C34.8595 8.32555 34.5058 8.08994 34.1167 7.92945C33.7276 7.76897 33.3106 7.68675 32.8897 7.6875H26.9063V6.93797C26.9058 6.42843 26.703 5.93992 26.3425 5.57984L25.1702 4.4075C24.8101 4.04698 24.3216 3.8442 23.812 3.84375H17.188C16.6784 3.8442 16.1899 4.04698 15.8298 4.4075L14.6575 5.57984C14.297 5.93992 14.0942 6.42843 14.0938 6.93797V7.6875H8.11032C7.68939 7.68675 7.27245 7.76897 6.88333 7.92945C6.4942 8.08994 6.14052 8.32555 5.8425 8.62281L4.02954 10.4358L2.21657 12.2488C1.91931 12.5468 1.6837 12.9004 1.52321 13.2896C1.36272 13.6787 1.2805 14.0956 1.28126 14.5166V33.9531C1.28126 34.4628 1.48374 34.9517 1.84416 35.3121C2.20458 35.6725 2.69342 35.875 3.20313 35.875H37.7969C38.3066 35.875 38.7954 35.6725 39.1558 35.3121C39.5163 34.9517 39.7188 34.4628 39.7188 33.9531V14.5166C39.7195 14.0956 39.6373 13.6787 39.4768 13.2896C39.3163 12.9004 39.0807 12.5468 38.7834 12.2488ZM15.375 6.93797C15.3745 6.85366 15.3907 6.77008 15.4226 6.69203C15.4544 6.61398 15.5014 6.54298 15.5608 6.48312L16.7331 5.31078C16.793 5.25141 16.864 5.20443 16.942 5.17255C17.0201 5.14067 17.1037 5.12451 17.188 5.125H23.812C23.8963 5.12451 23.9799 5.14067 24.058 5.17255C24.136 5.20443 24.207 5.25141 24.2669 5.31078L25.4392 6.48312C25.4986 6.54298 25.5456 6.61398 25.5775 6.69203C25.6093 6.77008 25.6255 6.85366 25.625 6.93797V7.6875H15.375V6.93797ZM3.12626 13.1584L3.8886 12.3961C3.94301 12.5339 4.04352 12.6486 4.17302 12.7207C4.30251 12.7927 4.45298 12.8177 4.59879 12.7912C4.74459 12.7648 4.87673 12.6886 4.97268 12.5757C5.06863 12.4627 5.12246 12.32 5.12501 12.1719V11.1533L6.75219 9.52609C7.11331 9.16792 7.60169 8.9675 8.11032 8.96875H32.8897C33.3992 8.9692 33.8877 9.17198 34.2478 9.5325L35.875 11.1533V12.1719C35.8789 12.3195 35.9338 12.4613 36.0302 12.5731C36.1267 12.685 36.2588 12.7601 36.4043 12.7857C36.5497 12.8113 36.6996 12.7859 36.8284 12.7137C36.9573 12.6416 37.0573 12.5271 37.1114 12.3897L37.8738 13.152C38.053 13.3311 38.1951 13.5438 38.2919 13.778C38.3886 14.0122 38.4381 14.2632 38.4375 14.5166V19.2188H33.3125C33.3125 18.8789 33.1775 18.5531 32.9372 18.3128C32.697 18.0725 32.3711 17.9375 32.0313 17.9375H28.1875C27.8477 17.9375 27.5218 18.0725 27.2815 18.3128C27.0412 18.5531 26.9063 18.8789 26.9063 19.2188H14.0938C14.0938 18.8789 13.9588 18.5531 13.7185 18.3128C13.4782 18.0725 13.1523 17.9375 12.8125 17.9375H8.96875C8.62895 17.9375 8.30306 18.0725 8.06277 18.3128C7.82249 18.5531 7.6875 18.8789 7.6875 19.2188H2.56251V14.5166C2.56295 14.007 2.76573 13.5185 3.12626 13.1584ZM32.0313 21.7812H28.1875V19.2188H32.0313V21.7812ZM12.8125 21.7812H8.96875V19.2188H12.8125V21.7812ZM38.4375 33.9531C38.4375 34.123 38.37 34.286 38.2499 34.4061C38.1297 34.5263 37.9668 34.5938 37.7969 34.5938H3.20313C3.03323 34.5938 2.87028 34.5263 2.75014 34.4061C2.63 34.286 2.56251 34.123 2.56251 33.9531V20.5H7.6875V21.7812C7.6875 22.1211 7.82249 22.447 8.06277 22.6872C8.30306 22.9275 8.62895 23.0625 8.96875 23.0625H12.8125C13.1523 23.0625 13.4782 22.9275 13.7185 22.6872C13.9588 22.447 14.0938 22.1211 14.0938 21.7812V20.5H26.9063V21.7812C26.9063 22.1211 27.0412 22.447 27.2815 22.6872C27.5218 22.9275 27.8477 23.0625 28.1875 23.0625H32.0313C32.3711 23.0625 32.697 22.9275 32.9372 22.6872C33.1775 22.447 33.3125 22.1211 33.3125 21.7812V20.5H38.4375V33.9531Z" fill="#D8998A"/>
<path d="M10.8906 12.8125C11.0605 12.8125 11.2235 12.745 11.3436 12.6249C11.4638 12.5047 11.5312 12.3418 11.5312 12.1719V10.8906C11.5312 10.7207 11.4638 10.5578 11.3436 10.4376C11.2235 10.3175 11.0605 10.25 10.8906 10.25C10.7207 10.25 10.5578 10.3175 10.4376 10.4376C10.3175 10.5578 10.25 10.7207 10.25 10.8906V12.1719C10.25 12.3418 10.3175 12.5047 10.4376 12.6249C10.5578 12.745 10.7207 12.8125 10.8906 12.8125ZM7.6875 12.8125C7.8574 12.8125 8.02035 12.745 8.14049 12.6249C8.26063 12.5047 8.32812 12.3418 8.32812 12.1719V10.8906C8.32812 10.7207 8.26063 10.5578 8.14049 10.4376C8.02035 10.3175 7.8574 10.25 7.6875 10.25C7.5176 10.25 7.35465 10.3175 7.23451 10.4376C7.11437 10.5578 7.04688 10.7207 7.04688 10.8906V12.1719C7.04688 12.3418 7.11437 12.5047 7.23451 12.6249C7.35465 12.745 7.5176 12.8125 7.6875 12.8125ZM20.5 12.8125C20.6699 12.8125 20.8328 12.745 20.953 12.6249C21.0731 12.5047 21.1406 12.3418 21.1406 12.1719V10.8906C21.1406 10.7207 21.0731 10.5578 20.953 10.4376C20.8328 10.3175 20.6699 10.25 20.5 10.25C20.3301 10.25 20.1672 10.3175 20.047 10.4376C19.9269 10.5578 19.8594 10.7207 19.8594 10.8906V12.1719C19.8594 12.3418 19.9269 12.5047 20.047 12.6249C20.1672 12.745 20.3301 12.8125 20.5 12.8125ZM14.0938 12.8125C14.2637 12.8125 14.4266 12.745 14.5467 12.6249C14.6669 12.5047 14.7344 12.3418 14.7344 12.1719V10.8906C14.7344 10.7207 14.6669 10.5578 14.5467 10.4376C14.4266 10.3175 14.2637 10.25 14.0938 10.25C13.9238 10.25 13.7609 10.3175 13.6408 10.4376C13.5206 10.5578 13.4531 10.7207 13.4531 10.8906V12.1719C13.4531 12.3418 13.5206 12.5047 13.6408 12.6249C13.7609 12.745 13.9238 12.8125 14.0938 12.8125ZM17.2969 12.8125C17.4668 12.8125 17.6297 12.745 17.7499 12.6249C17.87 12.5047 17.9375 12.3418 17.9375 12.1719V10.8906C17.9375 10.7207 17.87 10.5578 17.7499 10.4376C17.6297 10.3175 17.4668 10.25 17.2969 10.25C17.127 10.25 16.964 10.3175 16.8439 10.4376C16.7237 10.5578 16.6562 10.7207 16.6562 10.8906V12.1719C16.6562 12.3418 16.7237 12.5047 16.8439 12.6249C16.964 12.745 17.127 12.8125 17.2969 12.8125ZM23.7031 12.8125C23.873 12.8125 24.036 12.745 24.1561 12.6249C24.2763 12.5047 24.3438 12.3418 24.3438 12.1719V10.8906C24.3438 10.7207 24.2763 10.5578 24.1561 10.4376C24.036 10.3175 23.873 10.25 23.7031 10.25C23.5332 10.25 23.3703 10.3175 23.2501 10.4376C23.13 10.5578 23.0625 10.7207 23.0625 10.8906V12.1719C23.0625 12.3418 23.13 12.5047 23.2501 12.6249C23.3703 12.745 23.5332 12.8125 23.7031 12.8125ZM33.3125 12.8125C33.4824 12.8125 33.6453 12.745 33.7655 12.6249C33.8856 12.5047 33.9531 12.3418 33.9531 12.1719V10.8906C33.9531 10.7207 33.8856 10.5578 33.7655 10.4376C33.6453 10.3175 33.4824 10.25 33.3125 10.25C33.1426 10.25 32.9797 10.3175 32.8595 10.4376C32.7394 10.5578 32.6719 10.7207 32.6719 10.8906V12.1719C32.6719 12.3418 32.7394 12.5047 32.8595 12.6249C32.9797 12.745 33.1426 12.8125 33.3125 12.8125ZM26.9062 12.8125C27.0762 12.8125 27.2391 12.745 27.3592 12.6249C27.4794 12.5047 27.5469 12.3418 27.5469 12.1719V10.8906C27.5469 10.7207 27.4794 10.5578 27.3592 10.4376C27.2391 10.3175 27.0762 10.25 26.9062 10.25C26.7363 10.25 26.5734 10.3175 26.4533 10.4376C26.3331 10.5578 26.2656 10.7207 26.2656 10.8906V12.1719C26.2656 12.3418 26.3331 12.5047 26.4533 12.6249C26.5734 12.745 26.7363 12.8125 26.9062 12.8125ZM30.1094 12.8125C30.2793 12.8125 30.4422 12.745 30.5624 12.6249C30.6825 12.5047 30.75 12.3418 30.75 12.1719V10.8906C30.75 10.7207 30.6825 10.5578 30.5624 10.4376C30.4422 10.3175 30.2793 10.25 30.1094 10.25C29.9395 10.25 29.7765 10.3175 29.6564 10.4376C29.5362 10.5578 29.4688 10.7207 29.4688 10.8906V12.1719C29.4688 12.3418 29.5362 12.5047 29.6564 12.6249C29.7765 12.745 29.9395 12.8125 30.1094 12.8125ZM31.3906 32.0312H4.48438C4.31447 32.0312 4.15153 32.0987 4.03138 32.2189C3.91124 32.339 3.84375 32.502 3.84375 32.6719C3.84375 32.8418 3.91124 33.0047 4.03138 33.1249C4.15153 33.245 4.31447 33.3125 4.48438 33.3125H31.3906C31.5605 33.3125 31.7235 33.245 31.8436 33.1249C31.9638 33.0047 32.0312 32.8418 32.0312 32.6719C32.0312 32.502 31.9638 32.339 31.8436 32.2189C31.7235 32.0987 31.5605 32.0312 31.3906 32.0312ZM33.3125 32.6719C33.3125 32.8418 33.38 33.0047 33.5001 33.1249C33.6203 33.245 33.7832 33.3125 33.9531 33.3125H36.5156C36.6855 33.3125 36.8485 33.245 36.9686 33.1249C37.0888 33.0047 37.1562 32.8418 37.1562 32.6719C37.1562 32.502 37.0888 32.339 36.9686 32.2189C36.8485 32.0987 36.6855 32.0312 36.5156 32.0312H33.9531C33.7832 32.0312 33.6203 32.0987 33.5001 32.2189C33.38 32.339 33.3125 32.502 33.3125 32.6719Z" fill="#D8998A"/>
</svg>
